<?xml version="1.0" encoding="UTF-8" standalone="no"?>
<!-- Created with Inkscape (http://www.inkscape.org/) -->

<svg
   xmlns:dc="http://purl.org/dc/elements/1.1/"
   xmlns:cc="http://creativecommons.org/ns#"
   xmlns:rdf="http://www.w3.org/1999/02/22-rdf-syntax-ns#"
   xmlns:svg="http://www.w3.org/2000/svg"
   xmlns="http://www.w3.org/2000/svg"
   xmlns:sodipodi="http://sodipodi.sourceforge.net/DTD/sodipodi-0.dtd"
   xmlns:inkscape="http://www.inkscape.org/namespaces/inkscape"
   version="1.0"
   width="720"
   height="720"
   id="svg2"
   inkscape:version="0.48.1 r9760"
   sodipodi:docname="blurry_heart.svg">
  <metadata
     id="metadata3061">
    <rdf:RDF>
      <cc:Work
         rdf:about="">
        <dc:format>image/svg+xml</dc:format>
        <dc:type
           rdf:resource="http://purl.org/dc/dcmitype/StillImage" />
        <dc:title></dc:title>
      </cc:Work>
    </rdf:RDF>
  </metadata>
  <sodipodi:namedview
     pagecolor="#ffffff"
     bordercolor="#666666"
     borderopacity="1"
     objecttolerance="10"
     gridtolerance="10"
     guidetolerance="10"
     inkscape:pageopacity="0"
     inkscape:pageshadow="2"
     inkscape:window-width="1050"
     inkscape:window-height="1680"
     id="namedview3059"
     showgrid="false"
     inkscape:zoom="0.65555556"
     inkscape:cx="420.02167"
     inkscape:cy="535.57846"
     inkscape:window-x="0"
     inkscape:window-y="0"
     inkscape:window-maximized="0"
     inkscape:current-layer="svg2" />
  <defs
     id="defs4" />
  <path
     style="fill:#e80000;fill-opacity:0.12560387000000001;fill-rule:nonzero;stroke:none;"
     d="M 180 45 C 80.64 45 0 125.64 0 225 C 0 272.80121 18.660373 316.25889 49.09375 348.5 L 359 675 L 674.34375 345.6875 C 705.66148 307.67771 716.18839 275.4784 720 225 C 720 125.64 639.36 45 540 45 C 448.44628 45 372.79212 113.4776 361.46875 201.96875 L 358.53125 201.96875 C 347.20788 113.4776 271.55372 45 180 45 z M 206.5625 101.65625 C 285.03713 101.65625 349.888 160.33793 359.59375 236.1875 L 362.125 236.1875 C 371.83075 160.33793 436.68162 101.65625 515.15625 101.65625 C 600.32198 101.65625 669.4375 170.77178 669.4375 255.9375 C 666.17041 299.20471 657.12503 326.79518 630.28125 359.375 L 360 641.65625 L 94.375 361.78125 C 68.289244 334.146 52.28125 296.90998 52.28125 255.9375 C 52.28125 170.77178 121.39677 101.65625 206.5625 101.65625 z "
     id="path2433" />
  <path
     style="fill:#e80000;fill-opacity:0.33816424000000000;fill-rule:nonzero;stroke:none;"
     d="M 230.71875 153.1875 C 159.74729 153.1875 102.15625 210.77854 102.15625 281.75 C 102.15625 315.89374 115.48061 346.93938 137.21875 369.96875 L 358.59375 603.1875 L 583.84375 367.96875 C 606.21357 340.81889 613.71492 317.80601 616.4375 281.75 C 616.4375 210.77854 558.84646 153.1875 487.875 153.1875 C 422.47946 153.1875 368.43187 202.10451 360.34375 265.3125 L 358.25 265.3125 C 350.16188 202.10451 296.11429 153.1875 230.71875 153.1875 z M 256.09375 205.8125 C 308.4102 205.8125 351.6545 244.96484 358.125 295.53125 L 359.8125 295.53125 C 366.283 244.96484 409.49605 205.8125 461.8125 205.8125 C 518.58969 205.8125 564.6875 251.91032 564.6875 308.6875 C 562.50944 337.53233 556.48961 355.93636 538.59375 377.65625 L 358.40625 565.8125 L 181.3125 379.25 C 163.92199 360.82649 153.25 336.0025 153.25 308.6875 C 153.25 251.91032 199.31656 205.8125 256.09375 205.8125 z "
     id="path4423" />
  <path
     style="fill:#e80000;fill-opacity:0.57004832999999999;fill-rule:nonzero;stroke:none;"
     d="M 280.8125 256.375 C 238.22969 256.375 203.6875 290.94844 203.6875 333.53125 C 203.6875 354.01747 211.67588 372.6199 224.71875 386.4375 L 357.53125 526.375 L 492.6875 385.25 C 506.10937 368.9601 510.61645 355.16483 512.25 333.53125 C 512.25 290.94844 477.67656 256.375 435.09375 256.375 C 395.85648 256.375 363.44662 285.73151 358.59375 323.65625 L 357.34375 323.65625 C 352.49088 285.73151 320.04977 256.375 280.8125 256.375 z M 306 305.75 C 332.15818 305.75 353.76476 325.31059 357 350.59375 L 357.84375 350.59375 C 361.07899 325.31059 382.68557 305.75 408.84375 305.75 C 437.2323 305.75 460.28125 328.79895 460.28125 357.1875 C 459.19222 371.60988 456.16667 380.79633 447.21875 391.65625 L 357.125 485.75 L 268.59375 392.46875 C 259.8985 383.25701 254.5625 370.84497 254.5625 357.1875 C 254.5625 328.79895 277.61146 305.75 306 305.75 z "
     id="path4431" />
</svg>
